<svg width="250" height="114" viewBox="0 0 250 114" fill="none" xmlns="http://www.w3.org/2000/svg">
<path d="M11.5577 60H19.6197V18.24H11.5577L3.7277 22.938V31.638L11.5577 26.824V60ZM44.3916 60.87C47.4849 60.87 50.1916 60.2223 52.5116 58.927C54.8316 57.6317 56.6393 55.824 57.9346 53.504C59.2299 51.184 59.8776 48.4773 59.8776 45.384V32.856C59.8776 29.7627 59.2299 27.056 57.9346 24.736C56.6393 22.416 54.8316 20.6083 52.5116 19.313C50.1916 18.0177 47.4849 17.37 44.3916 17.37C41.2983 17.37 38.5916 18.0177 36.2716 19.313C33.9516 20.6083 32.1439 22.416 30.8486 24.736C29.5533 27.056 28.9056 29.7627 28.9056 32.856V45.384C28.9056 48.4773 29.5533 51.184 30.8486 53.504C32.1439 55.824 33.9516 57.6317 36.2716 58.927C38.5916 60.2223 41.2983 60.87 44.3916 60.87ZM44.3916 53.388C42.9996 53.388 41.7429 53.0593 40.6216 52.402C39.5003 51.7447 38.6109 50.8553 37.9536 49.734C37.2963 48.6127 36.9676 47.356 36.9676 45.964V32.218C36.9676 30.826 37.2963 29.5693 37.9536 28.448C38.6109 27.3267 39.5003 26.4373 40.6216 25.78C41.7429 25.1227 42.9996 24.794 44.3916 24.794C45.7836 24.794 47.0403 25.1227 48.1616 25.78C49.2829 26.4373 50.1723 27.3267 50.8296 28.448C51.4869 29.5693 51.8156 30.826 51.8156 32.218V45.964C51.8156 47.356 51.4869 48.6127 50.8296 49.734C50.1723 50.8553 49.2829 51.7447 48.1616 52.402C47.0403 53.0593 45.7836 53.388 44.3916 53.388ZM81.7336 60.87C84.827 60.87 87.5336 60.2223 89.8536 58.927C92.1736 57.6317 93.9813 55.824 95.2766 53.504C96.572 51.184 97.2196 48.4773 97.2196 45.384V32.856C97.2196 29.7627 96.572 27.056 95.2766 24.736C93.9813 22.416 92.1736 20.6083 89.8536 19.313C87.5336 18.0177 84.827 17.37 81.7336 17.37C78.6403 17.37 75.9336 18.0177 73.6136 19.313C71.2936 20.6083 69.486 22.416 68.1906 24.736C66.8953 27.056 66.2476 29.7627 66.2476 32.856V45.384C66.2476 48.4773 66.8953 51.184 68.1906 53.504C69.486 55.824 71.2936 57.6317 73.6136 58.927C75.9336 60.2223 78.6403 60.87 81.7336 60.87ZM81.7336 53.388C80.3416 53.388 79.085 53.0593 77.9636 52.402C76.8423 51.7447 75.953 50.8553 75.2956 49.734C74.6383 48.6127 74.3096 47.356 74.3096 45.964V32.218C74.3096 30.826 74.6383 29.5693 75.2956 28.448C75.953 27.3267 76.8423 26.4373 77.9636 25.78C79.085 25.1227 80.3416 24.794 81.7336 24.794C83.1256 24.794 84.3823 25.1227 85.5036 25.78C86.625 26.4373 87.5143 27.3267 88.1716 28.448C88.829 29.5693 89.1576 30.826 89.1576 32.218V45.964C89.1576 47.356 88.829 48.6127 88.1716 49.734C87.5143 50.8553 86.625 51.7447 85.5036 52.402C84.3823 53.0593 83.1256 53.388 81.7336 53.388ZM113.45 38.25C115.364 38.25 117.104 37.786 118.67 36.858C120.255 35.9107 121.521 34.654 122.469 33.088C123.416 31.5027 123.89 29.7433 123.89 27.81C123.89 25.8767 123.416 24.127 122.469 22.561C121.521 20.9757 120.255 19.719 118.67 18.791C117.104 17.8437 115.364 17.37 113.45 17.37C111.594 17.37 109.873 17.8437 108.288 18.791C106.702 19.7383 105.426 21.0047 104.46 22.59C103.493 24.1753 103.01 25.9153 103.01 27.81C103.01 29.7433 103.483 31.5027 104.431 33.088C105.378 34.654 106.635 35.9107 108.201 36.858C109.786 37.786 111.536 38.25 113.45 38.25ZM109.97 60L146.51 23.518L141.29 18.24L104.75 54.78L109.97 60ZM113.45 31.58C112.444 31.58 111.565 31.203 110.811 30.449C110.057 29.695 109.68 28.8153 109.68 27.81C109.68 26.7853 110.057 25.9057 110.811 25.171C111.565 24.417 112.444 24.04 113.45 24.04C114.474 24.04 115.354 24.417 116.089 25.171C116.843 25.9057 117.22 26.7853 117.22 27.81C117.22 28.8153 116.843 29.695 116.089 30.449C115.354 31.203 114.474 31.58 113.45 31.58ZM137.81 60.87C139.724 60.87 141.464 60.406 143.03 59.478C144.615 58.5307 145.881 57.274 146.829 55.708C147.776 54.1227 148.25 52.3633 148.25 50.43C148.25 48.4967 147.776 46.747 146.829 45.181C145.881 43.5957 144.615 42.339 143.03 41.411C141.464 40.4637 139.724 39.99 137.81 39.99C135.954 39.99 134.233 40.4637 132.648 41.411C131.062 42.3583 129.786 43.6247 128.82 45.21C127.853 46.7953 127.37 48.5353 127.37 50.43C127.37 52.3633 127.834 54.1227 128.762 55.708C129.709 57.274 130.975 58.5307 132.561 59.478C134.146 60.406 135.896 60.87 137.81 60.87ZM137.81 54.2C136.804 54.2 135.925 53.823 135.171 53.069C134.417 52.315 134.04 51.4353 134.04 50.43C134.04 49.4053 134.417 48.5257 135.171 47.791C135.925 47.037 136.804 46.66 137.81 46.66C138.834 46.66 139.714 47.037 140.449 47.791C141.203 48.5257 141.58 49.4053 141.58 50.43C141.58 51.4353 141.203 52.315 140.449 53.069C139.714 53.823 138.834 54.2 137.81 54.2Z" fill="#661CE7"/>
<path opacity="0.7" d="M13.892 105.36C15.884 105.36 17.532 104.856 18.836 103.848C20.148 102.84 21.06 101.484 21.572 99.78L19.028 99.096C18.684 100.304 18.084 101.252 17.228 101.94C16.372 102.628 15.26 102.972 13.892 102.972C12.668 102.972 11.644 102.696 10.82 102.144C10.004 101.592 9.388 100.82 8.972 99.828C8.564 98.836 8.364 97.68 8.372 96.36C8.38 95.04 8.588 93.884 8.996 92.892C9.404 91.9 10.016 91.128 10.832 90.576C11.648 90.024 12.668 89.748 13.892 89.748C15.26 89.748 16.372 90.092 17.228 90.78C18.084 91.468 18.684 92.416 19.028 93.624L21.572 92.94C21.06 91.236 20.148 89.88 18.836 88.872C17.532 87.864 15.884 87.36 13.892 87.36C12.164 87.36 10.692 87.74 9.476 88.5C8.26 89.26 7.328 90.316 6.68 91.668C6.04 93.012 5.72 94.576 5.72 96.36C5.72 98.144 6.04 99.712 6.68 101.064C7.328 102.408 8.26 103.46 9.476 104.22C10.692 104.98 12.164 105.36 13.892 105.36ZM28.3753 105.348C29.3113 105.348 30.1393 105.18 30.8593 104.844C31.5873 104.508 32.1873 104.044 32.6593 103.452V105H34.8913V92.04H32.3593V98.784C32.3593 99.808 32.2113 100.628 31.9153 101.244C31.6193 101.852 31.2193 102.292 30.7153 102.564C30.2193 102.836 29.6713 102.972 29.0713 102.972C28.3833 102.972 27.8233 102.832 27.3913 102.552C26.9593 102.272 26.6273 101.904 26.3953 101.448C26.1633 100.992 26.0033 100.5 25.9153 99.972C25.8353 99.436 25.7953 98.916 25.7953 98.412V92.04H23.2513V99.24C23.2513 99.64 23.2873 100.104 23.3593 100.632C23.4313 101.16 23.5673 101.7 23.7673 102.252C23.9673 102.804 24.2553 103.316 24.6313 103.788C25.0153 104.252 25.5113 104.628 26.1193 104.916C26.7273 105.204 27.4793 105.348 28.3753 105.348ZM42.4929 105.348C44.1329 105.348 45.4169 104.984 46.3449 104.256C47.2809 103.528 47.7489 102.524 47.7489 101.244C47.7489 100.572 47.6089 100.004 47.3289 99.54C47.0569 99.076 46.6009 98.676 45.9609 98.34C45.3209 97.996 44.4569 97.684 43.3689 97.404C42.3529 97.148 41.5849 96.928 41.0649 96.744C40.5529 96.552 40.2049 96.36 40.0209 96.168C39.8369 95.968 39.7449 95.724 39.7449 95.436C39.7449 94.94 39.9809 94.552 40.4529 94.272C40.9249 93.984 41.5409 93.856 42.3009 93.888C43.0929 93.92 43.7369 94.12 44.2329 94.488C44.7289 94.848 45.0209 95.336 45.1089 95.952L47.6769 95.484C47.5329 94.332 46.9689 93.412 45.9849 92.724C45.0009 92.028 43.7649 91.68 42.2769 91.68C40.7569 91.68 39.5369 92.036 38.6169 92.748C37.6969 93.452 37.2369 94.392 37.2369 95.568C37.2369 96.2 37.3729 96.74 37.6449 97.188C37.9249 97.628 38.3889 98.012 39.0369 98.34C39.6929 98.668 40.5769 98.98 41.6889 99.276C42.7049 99.548 43.4609 99.776 43.9569 99.96C44.4529 100.144 44.7769 100.34 44.9289 100.548C45.0889 100.748 45.1689 101.012 45.1689 101.34C45.1689 101.9 44.9449 102.34 44.4969 102.66C44.0569 102.98 43.4449 103.14 42.6609 103.14C41.7969 103.14 41.0729 102.948 40.4889 102.564C39.9129 102.18 39.5449 101.648 39.3849 100.968L36.8169 101.364C37.0409 102.628 37.6489 103.608 38.6409 104.304C39.6329 105 40.9169 105.348 42.4929 105.348ZM57.1001 105V102.876C56.2521 103.004 55.5121 103.032 54.8801 102.96C54.2561 102.88 53.8001 102.596 53.5121 102.108C53.3601 101.844 53.2761 101.52 53.2601 101.136C53.2521 100.752 53.2481 100.3 53.2481 99.78V94.056H57.1001V92.04H53.2481V88.44H50.7281V92.04H48.2441V94.056H50.7281V99.9C50.7281 100.604 50.7361 101.236 50.7521 101.796C50.7761 102.348 50.9281 102.892 51.2081 103.428C51.5281 104.028 51.9961 104.468 52.6121 104.748C53.2281 105.028 53.9281 105.18 54.7121 105.204C55.4961 105.228 56.2921 105.16 57.1001 105ZM64.1311 105.36C65.4191 105.36 66.5391 105.072 67.4911 104.496C68.4431 103.912 69.1791 103.108 69.6991 102.084C70.2271 101.052 70.4911 99.86 70.4911 98.508C70.4911 97.172 70.2311 95.992 69.7111 94.968C69.1911 93.936 68.4551 93.132 67.5031 92.556C66.5511 91.972 65.4271 91.68 64.1311 91.68C62.8591 91.68 61.7471 91.968 60.7951 92.544C59.8431 93.12 59.1031 93.92 58.5751 94.944C58.0471 95.968 57.7831 97.156 57.7831 98.508C57.7831 99.844 58.0431 101.028 58.5631 102.06C59.0831 103.092 59.8151 103.9 60.7591 104.484C61.7111 105.068 62.8351 105.36 64.1311 105.36ZM64.1311 102.996C62.9231 102.996 62.0071 102.592 61.3831 101.784C60.7591 100.968 60.4471 99.876 60.4471 98.508C60.4471 97.188 60.7471 96.116 61.3471 95.292C61.9471 94.46 62.8751 94.044 64.1311 94.044C65.3551 94.044 66.2751 94.448 66.8911 95.256C67.5151 96.064 67.8271 97.148 67.8271 98.508C67.8271 99.836 67.5191 100.916 66.9031 101.748C66.2951 102.58 65.3711 102.996 64.1311 102.996ZM72.3961 105H74.9161V96.9C74.9161 96.02 75.1561 95.308 75.6361 94.764C76.1241 94.22 76.7641 93.948 77.5561 93.948C78.3561 93.948 78.9921 94.22 79.4641 94.764C79.9441 95.3 80.1841 96.036 80.1841 96.972L80.1721 105H82.6801L82.6921 96.9C82.6921 95.924 82.9521 95.188 83.4721 94.692C84.0001 94.196 84.6201 93.948 85.3321 93.948C86.1161 93.948 86.7481 94.212 87.2281 94.74C87.7081 95.268 87.9481 95.996 87.9481 96.924L87.9361 105H90.4441L90.4561 96.324C90.4561 94.932 90.0681 93.816 89.2921 92.976C88.5241 92.136 87.4441 91.716 86.0521 91.716C85.2041 91.716 84.4361 91.904 83.7481 92.28C83.0601 92.648 82.5161 93.16 82.1161 93.816C81.7721 93.16 81.2801 92.648 80.6401 92.28C80.0081 91.904 79.2441 91.716 78.3481 91.716C77.5721 91.716 76.8601 91.872 76.2121 92.184C75.5721 92.488 75.0441 92.904 74.6281 93.432V92.04H72.3961V105ZM98.4361 105.36C99.6921 105.36 100.832 105.044 101.856 104.412C102.88 103.772 103.644 102.872 104.148 101.712L101.688 100.932C101.032 102.308 99.9081 102.996 98.3161 102.996C97.2281 102.996 96.3721 102.668 95.7481 102.012C95.1241 101.356 94.7601 100.428 94.6561 99.228H104.316C104.404 97.676 104.22 96.336 103.764 95.208C103.308 94.08 102.616 93.212 101.688 92.604C100.76 91.988 99.6361 91.68 98.3161 91.68C97.0521 91.68 95.9441 91.964 94.9921 92.532C94.0401 93.1 93.2961 93.904 92.7601 94.944C92.2321 95.984 91.9681 97.212 91.9681 98.628C91.9681 99.964 92.2361 101.14 92.7721 102.156C93.3161 103.164 94.0721 103.952 95.0401 104.52C96.0161 105.08 97.1481 105.36 98.4361 105.36ZM98.4121 93.9C100.372 93.9 101.484 95.024 101.748 97.272H94.7161C94.8761 96.176 95.2641 95.34 95.8801 94.764C96.4961 94.188 97.3401 93.9 98.4121 93.9ZM106.288 105H108.82V98.46C108.82 97.7 108.94 96.996 109.18 96.348C109.42 95.7 109.844 95.18 110.452 94.788C110.884 94.508 111.36 94.344 111.88 94.296C112.4 94.248 112.868 94.28 113.284 94.392V92.04C112.7 91.928 112.08 91.932 111.424 92.052C110.776 92.172 110.208 92.412 109.72 92.772C109.24 93.092 108.84 93.536 108.52 94.104V92.04H106.288V105ZM125.198 105.36C126.39 105.36 127.486 105.16 128.486 104.76C129.494 104.36 130.302 103.768 130.91 102.984C131.518 102.2 131.822 101.228 131.822 100.068C131.822 99.228 131.666 98.532 131.354 97.98C131.042 97.42 130.646 96.972 130.166 96.636C129.694 96.3 129.202 96.04 128.69 95.856C128.186 95.664 127.734 95.512 127.334 95.4L124.142 94.5C123.734 94.388 123.322 94.248 122.906 94.08C122.498 93.904 122.154 93.668 121.874 93.372C121.594 93.076 121.454 92.688 121.454 92.208C121.454 91.712 121.61 91.28 121.922 90.912C122.242 90.536 122.666 90.244 123.194 90.036C123.73 89.828 124.318 89.732 124.958 89.748C125.95 89.756 126.826 90.04 127.586 90.6C128.354 91.152 128.83 91.916 129.014 92.892L131.702 92.436C131.35 90.844 130.582 89.608 129.398 88.728C128.214 87.84 126.746 87.388 124.994 87.372C123.834 87.364 122.786 87.552 121.85 87.936C120.914 88.32 120.17 88.88 119.618 89.616C119.074 90.352 118.802 91.256 118.802 92.328C118.802 93.256 118.998 94.008 119.39 94.584C119.782 95.16 120.27 95.608 120.854 95.928C121.446 96.248 122.03 96.492 122.606 96.66L127.034 97.968C127.674 98.16 128.194 98.432 128.594 98.784C129.002 99.128 129.206 99.612 129.206 100.236C129.206 100.812 129.026 101.308 128.666 101.724C128.314 102.132 127.846 102.448 127.262 102.672C126.678 102.888 126.038 102.996 125.342 102.996C124.222 102.996 123.242 102.704 122.402 102.12C121.562 101.536 121.01 100.712 120.746 99.648L118.13 100.044C118.322 101.14 118.738 102.088 119.378 102.888C120.018 103.68 120.838 104.292 121.838 104.724C122.838 105.148 123.958 105.36 125.198 105.36ZM137.32 105.36C139.384 105.36 140.94 104.612 141.988 103.116V105H144.208V97.02C144.208 96.476 144.184 95.968 144.136 95.496C144.088 95.024 143.96 94.576 143.752 94.152C143.352 93.296 142.72 92.672 141.856 92.28C141 91.88 139.992 91.68 138.832 91.68C137.336 91.68 136.136 92.008 135.232 92.664C134.328 93.32 133.72 94.204 133.408 95.316L135.748 96.036C135.972 95.316 136.368 94.796 136.936 94.476C137.504 94.156 138.128 93.996 138.808 93.996C139.816 93.996 140.544 94.212 140.992 94.644C141.448 95.068 141.696 95.728 141.736 96.624C140.68 96.768 139.648 96.92 138.64 97.08C137.632 97.232 136.752 97.416 136 97.632C135 97.952 134.24 98.428 133.72 99.06C133.2 99.692 132.94 100.496 132.94 101.472C132.94 102.176 133.104 102.824 133.432 103.416C133.768 104 134.26 104.472 134.908 104.832C135.564 105.184 136.368 105.36 137.32 105.36ZM137.764 103.308C136.964 103.308 136.372 103.124 135.988 102.756C135.612 102.388 135.424 101.952 135.424 101.448C135.424 100.936 135.592 100.532 135.928 100.236C136.272 99.94 136.7 99.704 137.212 99.528C137.756 99.368 138.396 99.228 139.132 99.108C139.876 98.988 140.736 98.856 141.712 98.712C141.704 99.016 141.684 99.356 141.652 99.732C141.62 100.108 141.552 100.444 141.448 100.74C141.352 101.164 141.148 101.572 140.836 101.964C140.532 102.356 140.12 102.68 139.6 102.936C139.088 103.184 138.476 103.308 137.764 103.308ZM154.02 105V102.876C153.172 103.004 152.432 103.032 151.8 102.96C151.176 102.88 150.72 102.596 150.432 102.108C150.28 101.844 150.196 101.52 150.18 101.136C150.172 100.752 150.168 100.3 150.168 99.78V94.056H154.02V92.04H150.168V88.44H147.648V92.04H145.164V94.056H147.648V99.9C147.648 100.604 147.656 101.236 147.672 101.796C147.696 102.348 147.848 102.892 148.128 103.428C148.448 104.028 148.916 104.468 149.532 104.748C150.148 105.028 150.848 105.18 151.632 105.204C152.416 105.228 153.212 105.16 154.02 105ZM156.272 89.916H158.78V87.48H156.272V89.916ZM156.272 105H158.78V92.04H156.272V105ZM166.62 105.348C168.26 105.348 169.544 104.984 170.472 104.256C171.408 103.528 171.876 102.524 171.876 101.244C171.876 100.572 171.736 100.004 171.456 99.54C171.184 99.076 170.728 98.676 170.088 98.34C169.448 97.996 168.584 97.684 167.496 97.404C166.48 97.148 165.712 96.928 165.192 96.744C164.68 96.552 164.332 96.36 164.148 96.168C163.964 95.968 163.872 95.724 163.872 95.436C163.872 94.94 164.108 94.552 164.58 94.272C165.052 93.984 165.668 93.856 166.428 93.888C167.22 93.92 167.864 94.12 168.36 94.488C168.856 94.848 169.148 95.336 169.236 95.952L171.804 95.484C171.66 94.332 171.096 93.412 170.112 92.724C169.128 92.028 167.892 91.68 166.404 91.68C164.884 91.68 163.664 92.036 162.744 92.748C161.824 93.452 161.364 94.392 161.364 95.568C161.364 96.2 161.5 96.74 161.772 97.188C162.052 97.628 162.516 98.012 163.164 98.34C163.82 98.668 164.704 98.98 165.816 99.276C166.832 99.548 167.588 99.776 168.084 99.96C168.58 100.144 168.904 100.34 169.056 100.548C169.216 100.748 169.296 101.012 169.296 101.34C169.296 101.9 169.072 102.34 168.624 102.66C168.184 102.98 167.572 103.14 166.788 103.14C165.924 103.14 165.2 102.948 164.616 102.564C164.04 102.18 163.672 101.648 163.512 100.968L160.944 101.364C161.168 102.628 161.776 103.608 162.768 104.304C163.76 105 165.044 105.348 166.62 105.348ZM174.999 105H177.507V94.056H180.783V92.04H177.507V91.104C177.507 89.984 178.095 89.424 179.271 89.424H180.783V87.36H179.151C178.831 87.36 178.475 87.376 178.083 87.408C177.691 87.432 177.299 87.516 176.907 87.66C176.523 87.804 176.163 88.06 175.827 88.428C175.411 88.884 175.167 89.4 175.095 89.976C175.031 90.552 174.999 91.088 174.999 91.584V92.04H172.851V94.056H174.999V105ZM185.282 105.36C187.346 105.36 188.902 104.612 189.95 103.116V105H192.17V97.02C192.17 96.476 192.146 95.968 192.098 95.496C192.05 95.024 191.922 94.576 191.714 94.152C191.314 93.296 190.682 92.672 189.818 92.28C188.962 91.88 187.954 91.68 186.794 91.68C185.298 91.68 184.098 92.008 183.194 92.664C182.29 93.32 181.682 94.204 181.37 95.316L183.71 96.036C183.934 95.316 184.33 94.796 184.898 94.476C185.466 94.156 186.09 93.996 186.77 93.996C187.778 93.996 188.506 94.212 188.954 94.644C189.41 95.068 189.658 95.728 189.698 96.624C188.642 96.768 187.61 96.92 186.602 97.08C185.594 97.232 184.714 97.416 183.962 97.632C182.962 97.952 182.202 98.428 181.682 99.06C181.162 99.692 180.902 100.496 180.902 101.472C180.902 102.176 181.066 102.824 181.394 103.416C181.73 104 182.222 104.472 182.87 104.832C183.526 105.184 184.33 105.36 185.282 105.36ZM185.726 103.308C184.926 103.308 184.334 103.124 183.95 102.756C183.574 102.388 183.386 101.952 183.386 101.448C183.386 100.936 183.554 100.532 183.89 100.236C184.234 99.94 184.662 99.704 185.174 99.528C185.718 99.368 186.358 99.228 187.094 99.108C187.838 98.988 188.698 98.856 189.674 98.712C189.666 99.016 189.646 99.356 189.614 99.732C189.582 100.108 189.514 100.444 189.41 100.74C189.314 101.164 189.11 101.572 188.798 101.964C188.494 102.356 188.082 102.68 187.562 102.936C187.05 103.184 186.438 103.308 185.726 103.308ZM200.11 105.36C201.502 105.36 202.686 105.024 203.662 104.352C204.638 103.68 205.338 102.708 205.762 101.436L203.218 100.836C202.954 101.532 202.57 102.068 202.066 102.444C201.57 102.812 200.918 102.996 200.11 102.996C198.926 102.996 198.03 102.584 197.422 101.76C196.822 100.936 196.518 99.856 196.51 98.52C196.518 97.224 196.81 96.156 197.386 95.316C197.97 94.468 198.878 94.044 200.11 94.044C200.838 94.044 201.482 94.248 202.042 94.656C202.61 95.056 203.018 95.62 203.266 96.348L205.762 95.628C205.442 94.412 204.778 93.452 203.77 92.748C202.77 92.036 201.562 91.68 200.146 91.68C198.842 91.68 197.718 91.972 196.774 92.556C195.838 93.14 195.118 93.948 194.614 94.98C194.11 96.004 193.854 97.184 193.846 98.52C193.854 99.832 194.102 101.004 194.59 102.036C195.086 103.068 195.798 103.88 196.726 104.472C197.662 105.064 198.79 105.36 200.11 105.36ZM214.903 105V102.876C214.055 103.004 213.315 103.032 212.683 102.96C212.059 102.88 211.603 102.596 211.315 102.108C211.163 101.844 211.079 101.52 211.063 101.136C211.055 100.752 211.051 100.3 211.051 99.78V94.056H214.903V92.04H211.051V88.44H208.531V92.04H206.047V94.056H208.531V99.9C208.531 100.604 208.539 101.236 208.555 101.796C208.579 102.348 208.731 102.892 209.011 103.428C209.331 104.028 209.799 104.468 210.415 104.748C211.031 105.028 211.731 105.18 212.515 105.204C213.299 105.228 214.095 105.16 214.903 105ZM217.155 89.916H219.663V87.48H217.155V89.916ZM217.155 105H219.663V92.04H217.155V105ZM228.175 105.36C229.463 105.36 230.583 105.072 231.535 104.496C232.487 103.912 233.223 103.108 233.743 102.084C234.271 101.052 234.535 99.86 234.535 98.508C234.535 97.172 234.275 95.992 233.755 94.968C233.235 93.936 232.499 93.132 231.547 92.556C230.595 91.972 229.471 91.68 228.175 91.68C226.903 91.68 225.791 91.968 224.839 92.544C223.887 93.12 223.147 93.92 222.619 94.944C222.091 95.968 221.827 97.156 221.827 98.508C221.827 99.844 222.087 101.028 222.607 102.06C223.127 103.092 223.859 103.9 224.803 104.484C225.755 105.068 226.879 105.36 228.175 105.36ZM228.175 102.996C226.967 102.996 226.051 102.592 225.427 101.784C224.803 100.968 224.491 99.876 224.491 98.508C224.491 97.188 224.791 96.116 225.391 95.292C225.991 94.46 226.919 94.044 228.175 94.044C229.399 94.044 230.319 94.448 230.935 95.256C231.559 96.064 231.871 97.148 231.871 98.508C231.871 99.836 231.563 100.916 230.947 101.748C230.339 102.58 229.415 102.996 228.175 102.996ZM236.44 105H238.984V98.256C238.984 97.232 239.132 96.416 239.428 95.808C239.732 95.192 240.132 94.748 240.628 94.476C241.124 94.204 241.672 94.068 242.272 94.068C242.96 94.068 243.52 94.208 243.952 94.488C244.384 94.768 244.716 95.136 244.948 95.592C245.18 96.048 245.336 96.544 245.416 97.08C245.504 97.608 245.548 98.124 245.548 98.628V105H248.092V97.8C248.092 97.4 248.056 96.936 247.984 96.408C247.912 95.88 247.776 95.34 247.576 94.788C247.376 94.236 247.084 93.728 246.7 93.264C246.324 92.792 245.832 92.412 245.224 92.124C244.616 91.836 243.864 91.692 242.968 91.692C242.032 91.692 241.2 91.86 240.472 92.196C239.752 92.532 239.156 92.996 238.684 93.588V92.04H236.44V105Z" fill="#1E1B1B"/>
</svg>
